<svg width="67" height="64" viewBox="0 0 67 64" fill="none" xmlns="http://www.w3.org/2000/svg">
<g id="target-icon 1" clip-path="url(#clip0_1_327)">
<g id="Group">
<path id="Vector" d="M32.6921 0H32.6969V0.00106797C35.8485 0.00160196 38.8943 0.457627 41.7693 1.3072C42.2291 1.44283 42.6931 1.59235 43.1604 1.75361C45.5249 2.57168 47.7601 3.65728 49.8304 4.97303C49.9762 5.0654 50.0194 5.25871 49.9276 5.40449C49.918 5.4189 49.9068 5.43332 49.8955 5.44614L47.6058 8.382C47.5043 8.51229 47.3196 8.54006 47.185 8.44875L47.1797 8.44555C46.5976 8.08617 45.9964 7.74602 45.3791 7.42616C44.757 7.1047 44.1247 6.80674 43.4834 6.53494L43.4824 6.5344C40.1684 5.12842 36.5218 4.35093 32.6915 4.35093H32.6883V4.34986C28.8725 4.34986 25.2349 5.12468 21.9274 6.52373C21.387 6.75227 20.8568 6.99684 20.3388 7.25582C17.6651 8.59293 15.2366 10.3535 13.1407 12.4494L13.1385 12.4515L13.1241 12.4649C12.4288 13.1612 11.7704 13.8944 11.1526 14.6612C10.5311 15.4328 9.94847 16.2396 9.41075 17.0769C6.6463 21.3809 5.0422 26.5029 5.0422 31.9997V32.0029H5.04113C5.04113 35.8188 5.81595 39.4563 7.21499 42.7639C7.44354 43.3048 7.68811 43.8345 7.94709 44.3525C9.28419 47.0256 11.0448 49.4547 13.1412 51.5506L13.1433 51.5527L13.1551 51.565C13.8514 52.2608 14.5856 52.9198 15.353 53.5381C16.1246 54.1602 16.9314 54.7423 17.7693 55.28C22.0732 58.0444 27.1957 59.6485 32.6921 59.6485H32.6953V59.6501C36.5122 59.6496 40.1487 58.8753 43.4562 57.4763C43.9971 57.2477 44.5268 57.0032 45.0448 56.7442C47.7185 55.4071 50.1476 53.6465 52.243 51.5506L52.2456 51.5479L52.2616 51.5325C52.9558 50.8367 53.6137 50.1046 54.231 49.3388C54.8531 48.5672 55.4351 47.7598 55.9729 46.9225C58.7378 42.6186 60.3414 37.4966 60.3414 32.0003V31.9949H60.343C60.3425 29.6886 60.0589 27.4448 59.5244 25.3003C59.4358 24.9431 59.3423 24.5965 59.2451 24.2612C58.7314 22.4953 58.0453 20.8015 57.2085 19.2001C57.1359 19.0618 57.1775 18.8941 57.3004 18.8044L60.2592 16.465C60.3937 16.3582 60.5897 16.3811 60.696 16.5162C60.7056 16.528 60.7136 16.5408 60.7205 16.5536H60.7216L60.7237 16.5579L60.7269 16.5643C61.0799 17.204 61.4137 17.8592 61.7239 18.5272C62.0347 19.1958 62.3225 19.8755 62.5863 20.5639C63.9464 24.1159 64.6918 27.9724 64.6918 32.0008V32.004H64.6907C64.6902 36.4206 63.7942 40.63 62.1751 44.4571C61.9129 45.0782 61.6299 45.6917 61.3271 46.2956C59.777 49.3954 57.7404 52.2064 55.3193 54.628L55.3171 54.6301L55.3054 54.6408C54.498 55.4477 53.6473 56.2107 52.7577 56.9279C51.8644 57.6482 50.9309 58.321 49.9628 58.9431C44.9807 62.1428 39.0519 64.0005 32.6915 64.0005H32.6883V63.9995C28.2717 63.9989 24.0623 63.1029 20.2352 61.4838C19.6142 61.2217 19.0006 60.9381 18.3962 60.6353C15.2969 59.0857 12.4855 57.0486 10.0638 54.628L10.0617 54.6253L10.0467 54.6098C9.24148 53.8035 8.47948 52.9545 7.76393 52.0664C7.04412 51.1731 6.37076 50.2397 5.7492 49.2716C2.54955 44.2884 0.691803 38.3601 0.691803 32.0003V31.9965H0.692871C0.693405 27.5799 1.58944 23.371 3.20795 19.5434C3.47067 18.9224 3.75369 18.3094 4.05646 17.7044C5.60609 14.6051 7.64325 11.7942 10.0638 9.37255L10.066 9.37041L10.0798 9.35813C10.8862 8.55234 11.7368 7.78928 12.6248 7.0732C13.5187 6.35338 14.4516 5.68002 15.4202 5.05846C20.4039 1.85721 26.3323 0 32.6921 0ZM50.3884 8.70346L59.3434 0.146847L59.9398 5.91765L66.3082 6.71382L56.7188 16.0057L52.0529 16.4062L33.4338 33.7234L31.7181 32.2459L49.3541 13.8233L50.3884 8.70346ZM32.6921 21.8711H32.7001V21.8721C33.3024 21.8727 33.8887 21.9245 34.4532 22.0238C34.5188 22.0355 34.6118 22.0531 34.7292 22.0772H34.7308C35.2007 22.1733 35.661 22.3031 36.108 22.4633C36.2703 22.5209 36.3547 22.6993 36.2965 22.8616C36.2853 22.8936 36.2682 22.9225 36.2484 22.9481L36.249 22.9486L33.7494 26.1547C33.6794 26.2449 33.5683 26.285 33.4621 26.2711V26.2722L33.4477 26.27L33.3366 26.2572L33.327 26.2556L33.2309 26.2455L33.2229 26.2444C33.0563 26.23 32.8795 26.222 32.6921 26.222H32.6889V26.2204C31.8927 26.2209 31.1323 26.3833 30.4413 26.6759C30.327 26.7245 30.216 26.7757 30.1097 26.8286C29.5533 27.1068 29.046 27.4747 28.6065 27.9142L28.6044 27.9163L28.59 27.9291C28.449 28.0712 28.3155 28.2212 28.1895 28.3777C28.0597 28.5384 27.938 28.7077 27.8253 28.8828C27.2486 29.781 26.9143 30.8517 26.9143 31.9997V32.0029H26.9127C26.9133 32.8002 27.0756 33.56 27.3682 34.2505C27.4168 34.3653 27.4681 34.4764 27.5209 34.5821C27.7991 35.139 28.1676 35.6458 28.6065 36.0847L28.6087 36.0874L28.6215 36.1008C28.7635 36.2417 28.9136 36.3763 29.07 36.5018C29.2308 36.6315 29.4 36.7538 29.5752 36.8665C30.4739 37.4427 31.5445 37.7775 32.6921 37.7775H32.6953V37.7785C33.4925 37.7785 34.2529 37.6162 34.9428 37.3236C35.0576 37.275 35.1682 37.2237 35.2744 37.1709C35.8314 36.8921 36.3381 36.5242 36.7771 36.0847L36.7797 36.0821L36.7904 36.0719C36.8684 35.9934 36.9442 35.9139 37.0142 35.8354C37.0841 35.7569 37.1573 35.6688 37.232 35.5737C37.5941 35.1145 37.8883 34.5997 38.0976 34.046C38.1217 33.9814 38.1649 33.929 38.2188 33.8943L42.2579 30.7C42.393 30.5932 42.5885 30.6162 42.6953 30.7513C42.7326 30.7988 42.7535 30.8538 42.7599 30.9099H42.7615L42.7641 30.9339L42.7652 30.9504L42.778 31.0839V31.0877H42.7791L42.7908 31.2329V31.2356C42.8095 31.4919 42.8202 31.7466 42.8202 31.9997V32.0029H42.8186C42.8181 33.4004 42.5345 34.7321 42.0224 35.9432C41.9402 36.1381 41.85 36.3325 41.7538 36.5253C41.262 37.5073 40.618 38.3974 39.8528 39.1621L39.8507 39.1642L39.8336 39.1787C39.5816 39.4296 39.3167 39.6683 39.0406 39.891C38.7576 40.1185 38.4618 40.3321 38.1564 40.528C36.579 41.5405 34.7036 42.1284 32.6915 42.1284H32.6883V42.1268C31.2909 42.1263 29.9591 41.8427 28.7486 41.3306C28.5537 41.2484 28.3588 41.1582 28.1665 41.062C27.1845 40.5702 26.2944 39.9262 25.5297 39.1616L25.5276 39.1594L25.5099 39.1402C25.26 38.8887 25.0229 38.6244 24.8008 38.3488C24.5728 38.0658 24.3597 37.7705 24.1632 37.4646C23.1508 35.8877 22.5629 34.0118 22.5629 32.0003V31.9965H22.5639C22.5645 30.5996 22.8485 29.2679 23.3601 28.0573C23.4429 27.8624 23.5326 27.668 23.6287 27.4753C24.1194 26.4949 24.7634 25.6052 25.5292 24.8395L25.5297 24.839L25.5292 24.8384L25.5313 24.8363C25.7849 24.5832 26.0557 24.3402 26.3419 24.1095C26.6249 23.8815 26.9202 23.6685 27.2262 23.472C28.8046 22.459 30.6811 21.8711 32.6921 21.8711ZM33.2223 26.2444C33.0584 26.2241 32.9388 26.0789 32.9489 25.9144L33.2223 26.2444ZM32.6921 10.8453H32.6974V10.8464C34.5899 10.8469 36.423 11.0957 38.1644 11.5608C38.4479 11.6367 38.7299 11.7184 39.0091 11.8059C40.4429 12.2534 41.8131 12.8515 43.1 13.5804C43.2495 13.6653 43.3024 13.8559 43.2175 14.0054C43.2095 14.0182 43.2015 14.0316 43.1919 14.0433L43.1903 14.0449L40.8706 17.0203C40.7734 17.1442 40.601 17.1752 40.4685 17.0988L40.4611 17.0951C40.1471 16.9311 39.8197 16.7725 39.4796 16.623C39.1373 16.4719 38.7934 16.3331 38.4485 16.2071C36.6548 15.5524 34.7153 15.1951 32.6915 15.1951H32.6883V15.1941C30.3692 15.1941 28.159 15.6656 26.1486 16.5157C25.8314 16.6503 25.5089 16.7992 25.1831 16.9616L25.1586 16.9728C23.5443 17.7839 22.0769 18.8492 20.8087 20.1169L20.8066 20.119L20.7943 20.1313C20.374 20.5526 19.9752 20.998 19.6008 21.4626C19.2233 21.9314 18.8693 22.4221 18.5425 22.931C16.8631 25.5465 15.8886 28.6596 15.8886 31.9997V32.0029H15.8875C15.8875 34.322 16.359 36.5328 17.2091 38.5427C17.3479 38.8716 17.4969 39.1941 17.6539 39.5081C18.4661 41.132 19.5362 42.6079 20.8103 43.882L20.8125 43.8842C21.2407 44.313 21.6898 44.7166 22.1554 45.0915C22.6243 45.469 23.115 45.8231 23.6239 46.1499C26.2394 47.8298 29.353 48.8038 32.6926 48.8038H32.6958V48.8049C35.0149 48.8049 37.2256 48.3339 39.2361 47.4838C39.565 47.3444 39.8876 47.1959 40.2015 47.0384C41.8254 46.2262 43.3013 45.1567 44.5754 43.882L44.5776 43.8799C45.0064 43.4511 45.41 43.0025 45.7849 42.5369C46.1624 42.0675 46.5165 41.5773 46.8433 41.0679C48.5237 38.4519 49.4983 35.3388 49.4983 31.9997H49.4972V31.9917H49.4983C49.4983 30.9553 49.4032 29.9385 49.2227 28.9528C49.1955 28.8054 49.1634 28.6442 49.1266 28.4727C48.952 27.6531 48.7176 26.858 48.4308 26.0933C48.3796 25.9561 48.4308 25.8055 48.5467 25.7264L51.5707 23.3353C51.7058 23.2285 51.9012 23.2514 52.0075 23.3865C52.0235 23.4073 52.0363 23.4282 52.0464 23.4506L52.0491 23.4559L52.0513 23.4602L52.0518 23.4597C52.2093 23.8169 52.361 24.1886 52.5057 24.5736C52.6482 24.9538 52.7796 25.3356 52.8976 25.7179C53.5144 27.7038 53.847 29.8136 53.847 31.9992V32.0024H53.8454C53.8454 34.9217 53.2533 37.7043 52.1831 40.2338C52.0101 40.6434 51.8222 41.0492 51.6219 41.4497C50.5972 43.4992 49.251 45.3574 47.6507 46.9573L47.648 46.9594L47.6362 46.9706C47.1033 47.5019 46.5426 48.006 45.9563 48.4786C45.3657 48.9549 44.7484 49.3997 44.1087 49.8103C40.814 51.926 36.8951 53.1536 32.6915 53.1536H32.6883C29.769 53.1531 26.9864 52.5609 24.4564 51.4908C24.0468 51.3173 23.641 51.1298 23.2405 50.9296C21.1916 49.9043 19.3328 48.5587 17.7324 46.9583L17.7303 46.9562L17.7153 46.9402C17.1851 46.4088 16.6826 45.8492 16.2116 45.264C15.7353 44.6734 15.2905 44.0561 14.8793 43.4164C12.7637 40.1222 11.536 36.2027 11.536 31.9997V31.9965H11.5371C11.5376 29.0772 12.1303 26.2946 13.2005 23.7646C13.3735 23.355 13.5609 22.9492 13.7611 22.5487C14.7853 20.5008 16.1315 18.6431 17.7319 17.0422L17.7324 17.0417L17.7319 17.0411L17.734 17.039L17.7479 17.0262C18.2797 16.4949 18.8404 15.9919 19.4257 15.5203C20.0168 15.044 20.6336 14.5992 21.2733 14.1886C24.5691 12.0729 28.4891 10.8453 32.6921 10.8453Z" fill="white"/>
</g>
</g>
<defs>
<clipPath id="clip0_1_327">
<rect width="65.6164" height="64" fill="white" transform="translate(0.691803)"/>
</clipPath>
</defs>
</svg>
