<svg width="85" height="64" viewBox="0 0 85 64" fill="none" xmlns="http://www.w3.org/2000/svg">
<g id="desktop-smartphone-transfer-icon 1" clip-path="url(#clip0_1_315)">
<g id="Group">
<path id="Vector" fill-rule="evenodd" clip-rule="evenodd" d="M62.124 17.9621H79.4077C80.7236 17.9621 81.9243 18.4979 82.779 19.3594C83.6472 20.2277 84.1763 21.4215 84.1763 22.7307V59.2382C84.1763 60.5541 83.6404 61.7547 82.779 62.6094C81.9107 63.4777 80.7169 64.0068 79.4077 64.0068H62.124C60.808 64.0068 59.6074 63.4709 58.7527 62.6094C57.8844 61.7412 57.3553 60.5473 57.3553 59.2382V22.7239C57.3553 21.4079 57.8912 20.2073 58.7527 19.3526C59.6209 18.4844 60.808 17.9621 62.124 17.9621ZM77.7119 38.7663L69.6873 40.3671L71.3085 37.9659C68.7105 35.3068 65.8615 34.3843 62.5038 35.4561C66.004 30.9452 70.7658 30.8435 74.5441 33.1701L76.1992 30.7214L77.7119 38.7663ZM39.6917 26.7328L47.7163 25.132L46.0951 27.5332C48.6931 30.1923 51.5421 31.1148 54.8998 30.043C51.3996 34.5539 46.6378 34.6556 42.8595 32.329L41.2044 34.7777L39.6917 26.7328ZM2.89258 0H74.8765C76.0161 0 76.9454 0.929306 76.9454 2.06889V14.5772H72.5498V6.16598C72.5498 5.16206 71.729 4.3345 70.7183 4.3345H7.04393C6.04001 4.3345 5.21245 5.15527 5.21245 6.16598V41.3575C5.21245 42.3614 6.03322 43.189 7.04393 43.189H52.8512V51.8241H2.89258C1.75299 51.8241 0.823685 50.8947 0.823685 49.7552V2.06889C0.823685 0.929306 1.75299 0 2.89258 0ZM48.2658 54.6798C48.3132 57.929 49.6495 60.8322 53.2786 63.125H24.4905C27.3869 61.0221 29.5101 58.4649 29.5033 54.6798H48.2658ZM38.8845 44.8509C40.3497 44.8509 41.5436 46.0379 41.5436 47.5099C41.5436 48.9751 40.3497 50.1689 38.8845 50.1689C37.4193 50.1689 36.2255 48.9819 36.2255 47.5099C36.2255 46.0447 37.4126 44.8509 38.8845 44.8509ZM70.759 58.146C71.8376 58.146 72.7194 59.0143 72.7194 60.1064C72.7194 61.1849 71.8511 62.0668 70.759 62.0668C69.6805 62.0668 68.7987 61.1985 68.7987 60.1064C68.7987 59.0279 69.6669 58.146 70.759 58.146ZM59.3632 56.6537H82.1617V24.4672H59.3632V56.6537Z" fill="white"/>
</g>
</g>
<defs>
<clipPath id="clip0_1_315">
<rect width="83.3526" height="64" fill="white" transform="translate(0.823685)"/>
</clipPath>
</defs>
</svg>
