<svg width="59" height="64" viewBox="0 0 59 64" fill="none" xmlns="http://www.w3.org/2000/svg">
<g id="business-management-icon 1" clip-path="url(#clip0_1_309)">
<g id="Group">
<path id="Vector" fill-rule="evenodd" clip-rule="evenodd" d="M41.4568 41.2638C41.3586 41.5065 41.2037 41.7337 41.0023 41.9351L38.942 43.9955L38.9317 44.0058C38.7303 44.2072 38.5031 44.3621 38.2604 44.4602C38.0073 44.5687 37.744 44.6255 37.46 44.6255C37.176 44.6255 36.9075 44.5687 36.6596 44.4602C36.4169 44.3518 36.1949 44.1969 36.0038 43.9955L34.6612 42.6684C34.5786 42.7045 34.496 42.751 34.4185 42.7872C34.1913 42.8956 33.9538 42.9885 33.7266 43.0763C33.7162 43.0867 33.7059 43.0867 33.6904 43.0867C33.4632 43.1796 33.2205 43.2571 32.9572 43.3397C32.8745 43.3655 32.7919 43.3965 32.7041 43.412V45.0489C32.7041 45.3329 32.6473 45.6014 32.5492 45.8493C32.4511 46.092 32.2962 46.314 32.0948 46.5102L32.0741 46.5309C31.8728 46.722 31.6456 46.8769 31.4029 46.975C31.155 47.0731 30.8916 47.1299 30.6231 47.1299H27.6798C27.3958 47.1299 27.1324 47.0731 26.8794 46.975C26.6367 46.8769 26.4095 46.722 26.2081 46.5206C26.0067 46.3192 25.8518 46.092 25.7537 45.8493C25.6556 45.6014 25.5988 45.3381 25.5988 45.0489V43.1796C25.5058 43.1435 25.418 43.1176 25.3251 43.0815C25.0824 42.9885 24.8448 42.8801 24.597 42.7717C24.3543 42.6529 24.1167 42.5445 23.8895 42.4257C23.8172 42.3895 23.745 42.3431 23.6727 42.3069L22.5211 43.4791L22.4953 43.5049C22.2939 43.696 22.0667 43.8406 21.824 43.9387C21.5813 44.0368 21.318 44.0833 21.0443 44.0833C20.7706 44.0833 20.5073 44.0368 20.2646 43.9387C20.0219 43.8406 19.7947 43.7011 19.5933 43.5101C19.5829 43.4998 19.5726 43.4998 19.5726 43.4894L17.5174 41.4084C17.316 41.2174 17.156 40.9902 17.0527 40.7475C16.9442 40.5048 16.8874 40.2311 16.8874 39.9367C16.8874 39.6527 16.9442 39.3842 17.0527 39.126C17.1611 38.873 17.316 38.6561 17.5174 38.4651L18.8342 37.1483C18.7877 37.0554 18.7516 36.9779 18.7154 36.8953C18.6173 36.6681 18.514 36.4305 18.4159 36.1775C18.323 35.94 18.2352 35.6869 18.1629 35.4339C18.1371 35.3513 18.1061 35.2635 18.0906 35.1809H16.4537C16.1697 35.1809 15.9012 35.1241 15.6533 35.026C15.4106 34.9279 15.1886 34.773 14.9923 34.5716L14.9717 34.5509C14.7806 34.3495 14.6257 34.1223 14.5276 33.8899C14.4295 33.6421 14.3727 33.3787 14.3727 33.1102V30.1669C14.3727 29.5833 14.5741 29.0928 14.982 28.6952C15.1834 28.4938 15.4106 28.3389 15.6533 28.2408C15.9012 28.1427 16.1645 28.0858 16.4537 28.0858H18.323C18.3591 27.9929 18.3849 27.9051 18.4211 27.8122C18.514 27.5695 18.6225 27.3319 18.7309 27.0841C18.8497 26.8362 18.9581 26.6038 19.0769 26.3766C19.113 26.3043 19.1595 26.232 19.1957 26.1598L18.0235 25.0082L17.9977 24.9824C17.8066 24.781 17.662 24.5538 17.5639 24.3111C17.4658 24.0684 17.4193 23.8051 17.4193 23.5314C17.4193 23.2577 17.4658 22.9944 17.5639 22.7517C17.662 22.509 17.8014 22.2817 17.9925 22.0804C18.0028 22.07 18.0028 22.0597 18.0132 22.0597L20.0942 19.9994C20.2955 19.798 20.5228 19.6431 20.7654 19.5449C21.0185 19.4365 21.2818 19.3797 21.5658 19.3797C21.8498 19.3797 22.1184 19.4365 22.3662 19.5449C22.6089 19.6534 22.831 19.8083 23.022 20.0097L24.3388 21.3264C24.4317 21.28 24.5092 21.2438 24.5918 21.2077C24.819 21.1096 25.0566 21.0063 25.3096 20.9082C25.5471 20.8152 25.8001 20.7274 26.0532 20.6552C26.1461 20.6293 26.2236 20.5984 26.3062 20.5829V18.9459C26.3062 18.6619 26.363 18.3934 26.4611 18.1456C26.5592 17.9029 26.7141 17.6808 26.9155 17.4846L26.9362 17.4639C27.1376 17.2729 27.3648 17.118 27.5971 17.0198C27.845 16.9217 28.1084 16.8649 28.3769 16.8649H31.3202C31.6042 16.8649 31.8676 16.9217 32.1206 17.0198C32.3633 17.118 32.5905 17.2729 32.7919 17.4743C32.9933 17.6756 33.1482 17.9029 33.2463 18.1456C33.3444 18.3934 33.4012 18.6568 33.4012 18.9459V20.8152C33.4942 20.8514 33.582 20.8772 33.6749 20.9133C33.9176 21.0063 34.1552 21.1147 34.403 21.2232C34.6457 21.3419 34.8832 21.4504 35.1105 21.5691C35.1828 21.6053 35.255 21.6518 35.3273 21.6879L36.4789 20.5364C36.6802 20.335 36.9075 20.1801 37.1502 20.0716C37.4032 19.9632 37.6665 19.9064 37.9505 19.9064C38.2345 19.9064 38.4979 19.9632 38.7509 20.0716C39.004 20.1801 39.2208 20.3247 39.4222 20.5364L41.4826 22.5967L41.4929 22.6071C41.6943 22.8085 41.8492 23.0357 41.9473 23.2784C42.0558 23.5314 42.1126 23.7947 42.1126 24.0787C42.1126 24.3628 42.0558 24.6313 41.9473 24.8791C41.8389 25.127 41.684 25.3439 41.4826 25.5349L40.1658 26.8775C40.202 26.9601 40.2484 27.0428 40.2846 27.1202C40.3775 27.3268 40.4756 27.554 40.5737 27.8018C40.5841 27.8122 40.5841 27.8225 40.5841 27.838C40.677 28.0755 40.7648 28.3285 40.8371 28.5816C40.8629 28.6642 40.8939 28.752 40.9094 28.8346H42.5463C42.8303 28.8346 43.0988 28.8914 43.3467 28.9895C43.5894 29.0876 43.8114 29.2425 44.0077 29.4439L44.0283 29.4646C44.2194 29.666 44.3743 29.8932 44.4724 30.1255C44.5705 30.3734 44.6273 30.6368 44.6273 30.9053V33.8486C44.6273 34.1326 44.5705 34.396 44.4724 34.649C44.3743 34.8917 44.2194 35.1189 44.018 35.3306C43.8166 35.532 43.5894 35.6869 43.3467 35.7851C43.0988 35.8832 42.8355 35.94 42.5463 35.94H40.677C40.6409 36.0329 40.6151 36.1207 40.5789 36.2136C40.486 36.4563 40.3878 36.6939 40.2691 36.9417C40.1503 37.1844 40.0419 37.422 39.9231 37.6492C39.887 37.7215 39.8405 37.7938 39.8043 37.8661L40.9559 39.0176C41.1573 39.219 41.3122 39.4462 41.4206 39.6889C41.529 39.9419 41.5858 40.2053 41.5858 40.4893C41.5858 40.7733 41.529 41.0366 41.4206 41.2897L41.4568 41.2638ZM24.22 59.9C17.662 58.6658 11.8992 55.1699 7.77336 50.2592C3.61651 45.3174 1.11723 38.9505 1.11723 32.0103C1.11723 25.4885 3.32217 19.4726 7.03494 14.6755C10.82 9.77505 16.1748 6.14491 22.3507 4.54414L23.2699 8.08649C17.8944 9.48072 13.2315 12.641 9.93182 16.9114C6.70962 21.0838 4.79385 26.3198 4.79385 32.0103C4.79385 38.0675 6.96781 43.6134 10.5721 47.9045C14.0215 52.0097 18.7877 54.9789 24.2252 56.1562V52.3711L31.1395 58.0462L24.2252 63.7212L24.22 59.9ZM34.78 4.12587C41.276 5.34969 46.9923 8.78877 51.113 13.6324C55.3319 18.5896 57.8776 25.0082 57.8776 32.0103C57.8776 38.1707 55.9154 43.8716 52.5796 48.5241C49.156 53.3006 44.2865 56.9669 38.6063 58.893L38.0177 57.158L37.429 55.4229C37.5736 55.3765 37.7182 55.3248 37.8576 55.2732C42.6134 53.564 46.6928 50.4296 49.5897 46.3915C52.4918 42.3431 54.201 37.3807 54.201 32.0155C54.201 25.9016 51.9909 20.3092 48.3246 16.0026C44.8803 11.9542 40.1555 9.03663 34.7748 7.86445V11.6289L27.8657 5.94869L34.78 0.273682V4.12587ZM34.6354 32C34.6354 32.3563 34.5992 32.6971 34.5373 33.0276H34.5269C34.465 33.3632 34.3617 33.6834 34.2378 33.9881C34.1035 34.3082 33.9486 34.6077 33.7679 34.8711C33.5975 35.1447 33.3857 35.3978 33.1585 35.625C32.921 35.8625 32.6783 36.0587 32.4046 36.2446C32.1413 36.415 31.8418 36.5803 31.5216 36.7145C31.5113 36.7249 31.4958 36.7249 31.4855 36.7352C31.1963 36.854 30.8865 36.9417 30.5663 37.0089C30.2307 37.0708 29.895 37.107 29.5387 37.107C29.1824 37.107 28.8416 37.0708 28.5111 37.0089C28.1755 36.9469 27.8553 36.8436 27.5507 36.7197C27.2305 36.5854 26.931 36.4305 26.6677 36.2498C26.394 36.0691 26.141 35.8573 25.9137 35.6301C25.6865 35.3926 25.4852 35.1499 25.3044 34.8762C25.134 34.6129 24.9688 34.3134 24.8345 33.9932C24.8242 33.9829 24.8242 33.9674 24.8139 33.9571C24.6951 33.6679 24.6073 33.3581 24.5402 33.0379C24.4782 32.7023 24.4421 32.3666 24.4421 32.0103C24.4421 31.654 24.4782 31.3132 24.5402 30.9827C24.6021 30.6471 24.7054 30.3269 24.8294 30.0223C24.9636 29.7021 25.1185 29.4026 25.2993 29.1393C25.4697 28.8656 25.6814 28.6126 25.9086 28.3853C26.1461 28.1478 26.3888 27.9516 26.6625 27.7657C26.9258 27.5953 27.2253 27.43 27.5455 27.2906C27.5558 27.2803 27.5713 27.2803 27.5817 27.27C27.8812 27.1512 28.191 27.0634 28.506 26.9963C28.8416 26.9343 29.1773 26.8982 29.5336 26.8982C29.8899 26.8982 30.2307 26.9343 30.5612 26.9963C30.8968 27.0583 31.217 27.1615 31.5216 27.2855C31.8418 27.4197 32.1413 27.5746 32.4046 27.7605C32.6783 27.9413 32.9313 28.153 33.1585 28.3802C33.3857 28.6177 33.5871 28.8604 33.7679 29.1341C33.9383 29.3974 34.1035 29.697 34.2378 30.0171C34.2481 30.0274 34.2481 30.0429 34.2584 30.0533C34.3772 30.3424 34.465 30.6523 34.5321 30.9724C34.5992 31.3081 34.6354 31.6437 34.6354 32Z" fill="white" stroke="white" stroke-width="0.5" stroke-miterlimit="2.6131"/>
</g>
</g>
<defs>
<clipPath id="clip0_1_309">
<rect width="57.0237" height="64" fill="white" transform="translate(0.988144)"/>
</clipPath>
</defs>
</svg>
