<svg width="55" height="64" viewBox="0 0 55 64" fill="none" xmlns="http://www.w3.org/2000/svg">
<g id="maintenance-icon 1" clip-path="url(#clip0_1_333)">
<path id="Vector" fill-rule="evenodd" clip-rule="evenodd" d="M0.460805 50.5208C-0.30482 53.5104 0.387889 56.8802 2.23685 59.776C4.60143 47.4635 19.0962 52.6979 11.6535 64C18.0962 63.4792 21.5754 58.5052 21.44 52.3802C21.3775 49.4948 21.44 47.9271 21.8931 46.6146C22.1047 46.0199 22.3974 45.4573 22.7629 44.9427C22.4544 44.2142 22.2933 43.4318 22.2889 42.6406V42.4896C22.3021 41.586 22.5156 40.6966 22.9139 39.8854L19.0441 36.1198L17.9712 37.5417C16.9193 38.7929 15.7585 39.9485 14.5025 40.9948C13.7579 41.4604 12.9537 41.8231 12.1118 42.0729C6.92435 43.849 2.05456 44.3281 0.460805 50.5208ZM30.7525 39.5833L7.83581 17.2708L4.71081 16.7188C4.33619 16.6483 3.99141 16.4668 3.72122 16.1979L1.05976 13.5938C0.700253 13.2423 0.494579 12.7628 0.487747 12.2601C0.480914 11.7574 0.673479 11.2725 1.02331 10.9115L4.23685 7.66667C4.59222 7.31236 5.07357 7.1134 5.57539 7.1134C6.07721 7.1134 6.55856 7.31236 6.91393 7.66667L9.27331 10.0052C9.53766 10.2642 9.71896 10.596 9.79414 10.9583L10.8358 14.7656L33.4869 36.8698L35.7941 34.5469C35.8281 34.5122 35.8686 34.4847 35.9133 34.4659C35.958 34.4471 36.0061 34.4374 36.0546 34.4374C36.1031 34.4374 36.1511 34.4471 36.1958 34.4659C36.2405 34.4847 36.281 34.5122 36.315 34.5469L37.8202 36.0365C37.8841 36.0986 37.923 36.182 37.9296 36.2708C37.9921 36.7344 38.0285 37.1094 38.065 37.4271C38.1431 38.2031 38.1848 38.5938 38.3254 38.7292C38.466 38.8646 38.8462 38.8854 39.6014 38.9375C39.9244 38.9375 40.315 38.9896 40.8358 39.0417C40.9207 39.0479 41.0003 39.085 41.0598 39.1458L52.6327 50.8125C53.5676 51.5737 54.2509 52.5996 54.5929 53.7557C54.9349 54.9118 54.9197 56.1443 54.5494 57.2917C54.2726 58.1481 53.8122 58.9337 53.2004 59.5938C52.5939 60.2537 51.8411 60.7621 51.0025 61.0781C49.0494 61.8021 46.6066 61.4219 44.2994 59.0938L33.2421 47.9167C33.1814 47.8544 33.143 47.7738 33.1327 47.6875C33.0389 47.0573 32.9816 46.5469 32.9348 46.125C32.8358 45.2865 32.7837 44.849 32.6171 44.6875C32.4504 44.526 31.9608 44.4948 30.9816 44.4635C30.6431 44.4635 30.2473 44.4635 29.7837 44.4167C29.6937 44.4127 29.6084 44.3756 29.5441 44.3125L28.065 42.849C27.9963 42.7797 27.9577 42.6861 27.9577 42.5885C27.9577 42.491 27.9963 42.3974 28.065 42.3281L30.7577 39.6094L30.7525 39.5833ZM36.7629 47.2083C36.6769 47.1231 36.6087 47.0217 36.5621 46.91C36.5155 46.7982 36.4915 46.6784 36.4915 46.5573C36.4915 46.4362 36.5155 46.3164 36.5621 46.2046C36.6087 46.0929 36.6769 45.9915 36.7629 45.9063C36.9366 45.7336 37.1716 45.6366 37.4165 45.6366C37.6615 45.6366 37.8965 45.7336 38.0702 45.9063L48.0702 56.0417C48.2442 56.2143 48.3426 56.4491 48.3435 56.6942C48.3445 56.9394 48.2481 57.1749 48.0754 57.349C47.9027 57.523 47.668 57.6213 47.4228 57.6223C47.1777 57.6233 46.9422 57.5268 46.7681 57.3542L36.7629 47.2083ZM39.5129 44.4271C39.3388 44.2551 39.2402 44.021 39.2388 43.7764C39.2373 43.5317 39.3331 43.2964 39.5051 43.1224C39.6771 42.9483 39.9111 42.8498 40.1558 42.8483C40.4005 42.8468 40.6357 42.9426 40.8098 43.1146L50.8358 53.2604C50.922 53.3456 50.9906 53.4469 51.0376 53.5585C51.0846 53.6702 51.1092 53.79 51.1099 53.9111C51.1107 54.0323 51.0875 54.1524 51.0418 54.2646C50.9961 54.3768 50.9288 54.4789 50.8436 54.5651C50.7585 54.6513 50.6572 54.7199 50.5455 54.7669C50.4339 54.8139 50.314 54.8385 50.1929 54.8392C50.0717 54.84 49.9516 54.8168 49.8394 54.7711C49.7272 54.7254 49.6251 54.6581 49.5389 54.5729L39.5129 44.4271ZM35.0494 28.8333L38.1431 24.7865C41.8671 19.7292 51.5754 22.7031 53.9556 13.4583C54.716 10.4896 54.0233 7.125 52.19 4.22396C49.8254 16.5365 35.3358 11.3021 42.7785 0C36.3358 0.520833 32.8566 5.49479 32.9921 11.6198C33.0546 14.3073 33.8098 16.5 31.2629 19.9063L28.2785 23.8698L33.7473 29.1979C34.1661 29.0275 34.6029 28.9052 35.0494 28.8333Z" fill="white"/>
</g>
<defs>
<clipPath id="clip0_1_333">
<rect width="54.6927" height="64" fill="white" transform="translate(0.153641)"/>
</clipPath>
</defs>
</svg>
